# ProBuilder 4.4.0
# https://unity3d.com/unity/features/worldbuilding/probuilder
# 12/13/2020 2:44:15 AM

mtllib ./GoalMesh.mtl
o GoalMesh

g New Game Object
v 2.913957E-05 -3.509197 0.008779882
v 0.4038054 -3.509197 0.1317034
v 0.5354812 -3.509197 0.2985267
v 0.5705954 -3.509197 0.4038888
v 0.5705954 -3.509196 2.379429
v 0.4564759 -3.509197 2.546252
v 0.3248001 -3.509196 2.669175
v 0.06144769 -3.509196 2.695516
v 0.08778388 -3.509197 2.862413
v 0.8076151 -3.509197 2.844874
v 0.7725027 -3.509197 -0.07026506
v 2.956391E-05 9.313226E-10 0.008779288
v 0.7725031 -7.450581E-09 -0.07026566
v 0.4038059 1.490116E-08 0.1317028
v 0.5354816 2.980232E-08 0.2985261
v 0.5705959 5.960464E-08 0.4038882
v 0.8076155 2.384186E-07 2.844874
v 0.5705959 7.152557E-07 2.379429
v 0.4564763 2.384186E-07 2.546252
v 0.3248006 7.152557E-07 2.669174
v 0.06144811 7.152557E-07 2.695515
v 0.08778431 2.384186E-07 2.862413

vt 2.959275E-05 0.008779266
vt 0.4038059 0.1317028
vt 0.5354816 0.298526
vt 0.5705959 0.4038881
vt 0.5705959 2.379428
vt 0.4564764 2.546251
vt 0.3248006 2.669174
vt 0.06144814 2.695515
vt 0.08778434 2.862413
vt 0.8076156 2.844873
vt 0.7725032 -0.07026568
vt -0.7725031 -0.07026566
vt -0.4038059 0.1317028
vt -0.5354816 0.2985261
vt -0.5705959 0.4038882
vt -0.8076155 2.844874
vt -0.5705959 2.379429
vt -0.4564763 2.546252
vt -0.3248006 2.669174
vt -0.06144811 2.695515
vt -0.08778431 2.862413
vt 0.0008642818 -4.391777E-10
vt -0.775643 -8.821081E-09
vt 0.0008647644 -3.509197
vt -0.7756425 -3.509197
vt 0.424658 1.324733E-08
vt 0.002585142 -7.225087E-10
vt 0.4246578 -3.509197
vt 0.002584909 -3.509197
vt 0.5660927 7.653725E-08
vt 0.3535639 6.163609E-08
vt 0.5660929 -3.509197
vt 0.3535641 -3.509197
vt 0.5635776 1.284736E-07
vt 0.4525182 9.867123E-08
vt 0.563578 -3.509197
vt 0.4525186 -3.509197
vt 0.06095656 8.575045E-08
vt -2.854394 3.316196E-07
vt 0.06095597 -3.509197
vt -2.854395 -3.509197
vt 2.379429 7.830978E-07
vt 0.4038882 1.274467E-07
vt 2.379429 -3.509196
vt 0.4038888 -3.509197
vt 1.843841 2.772691E-07
vt 1.64172 7.541063E-07
vt 1.843842 -3.509197
vt 1.64172 -3.509196
vt 1.584004 6.75726E-07
vt 1.403869 1.988889E-07
vt 1.584005 -3.509196
vt 1.40387 -3.509197
vt 0.207126 3.835949E-07
vt -0.0575405 3.835949E-07
vt 0.2071265 -3.509196
vt -0.05754004 -3.509196
vt 2.84111 1.878362E-07
vt 2.672148 6.646733E-07
vt 2.841111 -3.509197
vt 2.672148 -3.509196
vt 0.7380788 -1.422982E-07
vt 0.01803397 -1.422982E-07
vt 0.7380784 -3.509197
vt 0.01803353 -3.509197

vn 0 -1 0
vn -5.825746E-10 1 -1.11733E-07
vn -0.1017955 -1.561329E-07 -0.9948054
vn -0.2912377 1.971169E-07 0.9566507
vn -0.7849442 1.985624E-07 0.6195664
vn -0.9487006 1.665009E-07 0.3161758
vn 0.9999275 -1.209339E-07 -0.01204397
vn -1 1.188969E-07 -4.30473E-14
vn -0.825359 2.141244E-08 -0.5646082
vn -0.6823939 -1.819326E-08 -0.7309846
vn -0.09952421 -1.231631E-07 -0.9950352
vn -0.9877777 1.407208E-07 0.1558697
vn 0.02435857 1.329457E-07 0.9997033

usemtl Lit
f 9/9/1 7/7/1 10/10/1
f 8/8/1 7/7/1 9/9/1
f 7/7/1 6/6/1 10/10/1
f 6/6/1 5/5/1 10/10/1
f 4/4/1 10/10/1 5/5/1
f 4/4/1 11/11/1 10/10/1
f 3/3/1 11/11/1 4/4/1
f 2/2/1 11/11/1 3/3/1
f 1/1/1 11/11/1 2/2/1
f 14/13/2 13/12/2 12/1/2
f 15/14/2 13/12/2 14/13/2
f 16/15/2 13/12/2 15/14/2
f 17/16/2 13/12/2 16/15/2
f 18/17/2 17/16/2 16/15/2
f 17/16/2 18/17/2 19/18/2
f 17/16/2 19/18/2 20/19/2
f 22/21/2 20/19/2 21/20/2
f 17/16/2 20/19/2 22/21/2
f 13/23/3 11/25/3 1/24/3
f 1/24/3 12/22/3 13/23/3
f 12/27/4 1/29/4 2/28/4
f 2/28/4 14/26/4 12/27/4
f 14/31/5 2/33/5 3/32/5
f 3/32/5 15/30/5 14/31/5
f 15/35/6 3/37/6 4/36/6
f 4/36/6 16/34/6 15/35/6
f 17/39/7 10/41/7 11/40/7
f 11/40/7 13/38/7 17/39/7
f 16/43/8 4/45/8 5/44/8
f 5/44/8 18/42/8 16/43/8
f 18/47/9 5/49/9 6/48/9
f 6/48/9 19/46/9 18/47/9
f 19/51/10 6/53/10 7/52/10
f 7/52/10 20/50/10 19/51/10
f 20/55/11 7/57/11 8/56/11
f 8/56/11 21/54/11 20/55/11
f 21/59/12 8/61/12 9/60/12
f 9/60/12 22/58/12 21/59/12
f 22/63/13 9/65/13 10/64/13
f 10/64/13 17/62/13 22/63/13

