# ProBuilder 4.4.0
# https://unity3d.com/unity/features/worldbuilding/probuilder
# 12/13/2020 12:10:12 PM

mtllib ./InnerBorder.mtl
o InnerBorder

g InnerBorder
v 0 4.768372E-07 4.896496
v 0 2.384186E-07 2.688272
v 1.048728E-09 4.316793 4.896496
v 1.048728E-09 4.316792 2.688272
v 15.55042 4.768372E-07 4.896496
v 15.55042 4.316793 4.896496
v 15.55042 2.384186E-07 2.66427
v 15.55042 4.316792 2.664269
v -0.02399827 -2.384186E-07 -2.280231
v 15.57441 -2.384186E-07 -2.256229
v -0.02399827 4.316792 -2.280232
v 15.57441 4.316792 -2.25623
v 15.52642 -7.450581E-09 -0.04800523
v 15.52642 4.316792 -0.04800565
v 0 0 0
v 1.048728E-09 4.316792 -4.179383E-07
v -1.751819 2.384186E-07 2.736278
v -1.631832 1.490116E-08 0.09601022
v -1.751819 4.316792 2.736277
v -1.631832 4.316792 0.09600981
v 17.11026 0 0
v 17.11026 4.316792 -4.179383E-07
v 17.13425 2.384186E-07 2.880292
v 17.13425 4.316792 2.880291

vt 4.896496 4.768372E-07
vt 2.688272 2.384186E-07
vt 4.896496 4.316793
vt 2.688272 4.316792
vt 15.55042 -6.403466E-08
vt 0 -6.403466E-08
vt 15.55042 4.316792
vt 1.048728E-09 4.316792
vt -2.66427 2.384186E-07
vt -4.896496 4.768372E-07
vt -2.664269 4.316792
vt -4.896496 4.316793
vt 0.02750695 1.345483E-08
vt -15.57092 1.345483E-08
vt 0.02750694 4.316793
vt -15.57092 4.316793
vt 2.594132 -2.75676E-07
vt 0.3853863 -4.470798E-08
vt 2.594132 4.316792
vt 0.3853867 4.316792
vt -2.280358 -2.384186E-07
vt -2.280358 4.316792
vt 2.812986 2.465715E-07
vt 0.1699937 2.305409E-08
vt 2.812986 4.316792
vt 0.1699933 4.316792
vt -0.07363946 -5.828994E-08
vt -1.826116 -5.828994E-08
vt -0.07363945 4.316792
vt -1.826116 4.316792
vt 1.634654 1.490116E-08
vt 1.634654 4.316792
vt -15.51784 4.262801E-08
vt -17.1024 5.007859E-08
vt -15.51784 4.316792
vt -17.1024 4.316792
vt -0.1425558 1.380132E-08
vt -3.022948 2.522199E-07
vt -0.1425553 4.316792
vt -3.022947 4.316792
vt 17.36632 1.794981E-07
vt 15.76781 1.794981E-07
vt 17.36632 4.316792
vt 15.76781 4.316792

vn -1 2.429415E-10 -2.623002E-17
vn 0 1.10461E-07 1
vn 1 0 0
vn 0.001538749 -1.104615E-07 -0.9999989
vn 0.9997638 2.400341E-09 0.02173022
vn -0.9999446 1.26182E-09 0.01052391
vn -0.998969 -5.014746E-09 -0.04539834
vn 0.02739286 1.104129E-07 0.9996248
vn -0.05873429 -9.64865E-08 -0.9982737
vn 0.03029549 -9.660899E-08 -0.999541
vn 0.9999653 -8.066391E-10 -0.008331597
vn -0.1351402 1.094477E-07 0.9908265

usemtl Collider
f 3/3/1 4/4/1 2/2/1 1/1/1
f 6/7/2 3/8/2 1/6/2 5/5/2
f 8/11/3 6/12/3 5/10/3 7/9/3
f 11/15/4 12/16/4 10/14/4 9/13/4
f 12/19/5 14/20/5 13/18/5 10/17/5
f 16/8/6 11/22/6 9/21/6 15/6/6
f 19/25/7 20/26/7 18/24/7 17/23/7
f 4/29/8 19/30/8 17/28/8 2/27/8
f 20/32/9 16/8/9 15/6/9 18/31/9
f 14/35/10 22/36/10 21/34/10 13/33/10
f 22/39/11 24/40/11 23/38/11 21/37/11
f 24/43/12 8/44/12 7/42/12 23/41/12

